<svg xmlns="http://www.w3.org/2000/svg" width="2048" height="2048" viewBox="0 0 2048 2048">
  <defs>
    <style>
      .cls-1 {
        fill: #39b54a;
      }

      .cls-2 {
        fill: #009245;
      }

      .cls-3 {
        fill: lime;
      }

      .cls-4 {
        fill: #006837;
      }

      .cls-5 {
        fill: #998675;
      }

      .cls-6 {
        fill: none;
        stroke: #736357;
        stroke-miterlimit: 10;
        stroke-width: 0.25px;
      }
    </style>
  </defs>
  <title>spritesheet</title>
  <g id="Grass">
    <rect class="cls-1" width="64" height="64"/>
    <path class="cls-2" d="M18.72,9.1c-1.23,3.42-2,5.73-2,4.91,0,3.39,4.09,4.49,4.09,1.34A29.63,29.63,0,0,0,18.72,9.1Z"/>
    <path class="cls-3" d="M11.72,47.1C10.49,50.52,9.67,52.83,9.67,52c0,3.39,4.09,4.49,4.09,1.34A29.63,29.63,0,0,0,11.72,47.1Z"/>
    <path class="cls-2" d="M34.72,38.1c-1.23,3.42-2,5.73-2,4.91,0,3.39,4.09,4.49,4.09,1.34A29.63,29.63,0,0,0,34.72,38.1Z"/>
    <path class="cls-4" d="M41.72,8.1c-1.23,3.42-2,5.73-2,4.91,0,3.39,4.09,4.49,4.09,1.34A29.63,29.63,0,0,0,41.72,8.1Z"/>
    <path class="cls-3" d="M47.72,54.1c-1.23,3.42-2,5.73-2,4.91,0,3.39,4.09,4.49,4.09,1.34A29.63,29.63,0,0,0,47.72,54.1Z"/>
    <path class="cls-3" d="M28.72,22.1c-1.23,3.42-2,5.73-2,4.91,0,3.39,4.09,4.49,4.09,1.34A29.63,29.63,0,0,0,28.72,22.1Z"/>
    <path class="cls-3" d="M57.72,19.1c-1.23,3.42-2,5.73-2,4.91,0,3.39,4.09,4.49,4.09,1.34A29.63,29.63,0,0,0,57.72,19.1Z"/>
    <path class="cls-4" d="M10.72,26.1C9.49,29.52,8.67,31.83,8.67,31c0,3.39,4.09,4.49,4.09,1.34A29.63,29.63,0,0,0,10.72,26.1Z"/>
  </g>
  <g id="RoadLeft">
    <path class="cls-5" d="M35,64c-.72,2.62-.24,8.19-.06,13.33C35,78.6,35,79.84,35,81c-.1,8.82,2.79,13.74,3,20a88.72,88.72,0,0,1-3.28,27H64V64Z"/>
    <path class="cls-6" d="M34.72,128A88.72,88.72,0,0,0,38,101c-.21-6.26-3.1-11.18-3-20,0-1.16,0-2.4-.06-3.67-.18-5.14-.66-10.71.06-13.33"/>
  </g>
  <g id="RoadRight">
    <path class="cls-5" d="M93,128c.72-2.62.24-8.19.06-13.33,0-1.27-.07-2.51-.06-3.67.1-8.82-2.79-13.74-3-20a88.72,88.72,0,0,1,3.28-27H64v64Z"/>
    <path class="cls-6" d="M93.28,64A88.72,88.72,0,0,0,90,91c.21,6.26,3.1,11.18,3,20,0,1.16,0,2.4.06,3.67.18,5.14.66,10.71-.06,13.33"/>
  </g>
</svg>
